<?xml version="1.0" encoding="UTF-8" standalone="no"?>
<!DOCTYPE svg PUBLIC "-//W3C//DTD SVG 1.1//EN"
 "http://www.w3.org/Graphics/SVG/1.1/DTD/svg11.dtd">
<!-- Generated by graphviz version 2.43.0 (0)
 -->
<!-- Title: src/Queue.cpp Pages: 1 -->
<svg width="109pt" height="140pt"
 viewBox="0.00 0.00 108.50 140.00" xmlns="http://www.w3.org/2000/svg" xmlns:xlink="http://www.w3.org/1999/xlink">
<g id="graph0" class="graph" transform="scale(1 1) rotate(0) translate(4 136)">
<title>src/Queue.cpp</title>
<polygon fill="white" stroke="transparent" points="-4,4 -4,-136 104.5,-136 104.5,4 -4,4"/>
<!-- Node1 -->
<g id="node1" class="node">
<title>Node1</title>
<g id="a_node1"><a xlink:title=" ">
<polygon fill="#bfbfbf" stroke="black" points="0,-112.5 0,-131.5 86,-131.5 86,-112.5 0,-112.5"/>
<text text-anchor="middle" x="43" y="-119.5" font-family="Helvetica,sans-Serif" font-size="10.00">src/Queue.cpp</text>
</a>
</g>
</g>
<!-- Node2 -->
<g id="node2" class="node">
<title>Node2</title>
<g id="a_node2"><a xlink:title=" ">
<polygon fill="white" stroke="#bfbfbf" points="11.5,-0.5 11.5,-19.5 74.5,-19.5 74.5,-0.5 11.5,-0.5"/>
<text text-anchor="middle" x="43" y="-7.5" font-family="Helvetica,sans-Serif" font-size="10.00">Arduino.h</text>
</a>
</g>
</g>
<!-- Node1&#45;&gt;Node2 -->
<g id="edge1" class="edge">
<title>Node1&#45;&gt;Node2</title>
<path fill="none" stroke="midnightblue" d="M40.45,-112.19C37.13,-99.72 32,-76.18 34,-56 34.87,-47.17 36.69,-37.51 38.47,-29.4"/>
<polygon fill="midnightblue" stroke="midnightblue" points="41.9,-30.08 40.77,-19.55 35.08,-28.49 41.9,-30.08"/>
</g>
<!-- Node3 -->
<g id="node3" class="node">
<title>Node3</title>
<g id="a_node3"><a xlink:href="_queue_8h.html" target="_top" xlink:title=" ">
<polygon fill="white" stroke="black" points="43.5,-56.5 43.5,-75.5 100.5,-75.5 100.5,-56.5 43.5,-56.5"/>
<text text-anchor="middle" x="72" y="-63.5" font-family="Helvetica,sans-Serif" font-size="10.00">Queue.h</text>
</a>
</g>
</g>
<!-- Node1&#45;&gt;Node3 -->
<g id="edge2" class="edge">
<title>Node1&#45;&gt;Node3</title>
<path fill="none" stroke="midnightblue" d="M47.79,-112.08C51.76,-104.69 57.53,-93.95 62.43,-84.81"/>
<polygon fill="midnightblue" stroke="midnightblue" points="65.65,-86.22 67.3,-75.75 59.49,-82.91 65.65,-86.22"/>
</g>
<!-- Node3&#45;&gt;Node2 -->
<g id="edge3" class="edge">
<title>Node3&#45;&gt;Node2</title>
<path fill="none" stroke="midnightblue" d="M67.21,-56.08C63.24,-48.69 57.47,-37.95 52.57,-28.81"/>
<polygon fill="midnightblue" stroke="midnightblue" points="55.51,-26.91 47.7,-19.75 49.35,-30.22 55.51,-26.91"/>
</g>
</g>
</svg>
