<?xml version="1.0" encoding="UTF-8" standalone="no"?>
<!DOCTYPE svg PUBLIC "-//W3C//DTD SVG 1.1//EN"
 "http://www.w3.org/Graphics/SVG/1.1/DTD/svg11.dtd">
<!-- Generated by graphviz version 2.43.0 (0)
 -->
<!-- Title: src/Task.cpp Pages: 1 -->
<svg width="96pt" height="140pt"
 viewBox="0.00 0.00 95.50 140.00" xmlns="http://www.w3.org/2000/svg" xmlns:xlink="http://www.w3.org/1999/xlink">
<g id="graph0" class="graph" transform="scale(1 1) rotate(0) translate(4 136)">
<title>src/Task.cpp</title>
<polygon fill="white" stroke="transparent" points="-4,4 -4,-136 91.5,-136 91.5,4 -4,4"/>
<!-- Node1 -->
<g id="node1" class="node">
<title>Node1</title>
<g id="a_node1"><a xlink:title=" ">
<polygon fill="#bfbfbf" stroke="black" points="0,-112.5 0,-131.5 76,-131.5 76,-112.5 0,-112.5"/>
<text text-anchor="middle" x="38" y="-119.5" font-family="Helvetica,sans-Serif" font-size="10.00">src/Task.cpp</text>
</a>
</g>
</g>
<!-- Node2 -->
<g id="node2" class="node">
<title>Node2</title>
<g id="a_node2"><a xlink:title=" ">
<polygon fill="white" stroke="#bfbfbf" points="6.5,-0.5 6.5,-19.5 69.5,-19.5 69.5,-0.5 6.5,-0.5"/>
<text text-anchor="middle" x="38" y="-7.5" font-family="Helvetica,sans-Serif" font-size="10.00">Arduino.h</text>
</a>
</g>
</g>
<!-- Node1&#45;&gt;Node2 -->
<g id="edge1" class="edge">
<title>Node1&#45;&gt;Node2</title>
<path fill="none" stroke="midnightblue" d="M36.01,-112.18C33.44,-99.7 29.44,-76.14 31,-56 31.68,-47.22 33.09,-37.56 34.47,-29.45"/>
<polygon fill="midnightblue" stroke="midnightblue" points="37.92,-30.04 36.26,-19.58 31.03,-28.8 37.92,-30.04"/>
</g>
<!-- Node3 -->
<g id="node3" class="node">
<title>Node3</title>
<g id="a_node3"><a xlink:href="_task_8h.html" target="_top" xlink:title=" ">
<polygon fill="white" stroke="black" points="40.5,-56.5 40.5,-75.5 87.5,-75.5 87.5,-56.5 40.5,-56.5"/>
<text text-anchor="middle" x="64" y="-63.5" font-family="Helvetica,sans-Serif" font-size="10.00">Task.h</text>
</a>
</g>
</g>
<!-- Node1&#45;&gt;Node3 -->
<g id="edge2" class="edge">
<title>Node1&#45;&gt;Node3</title>
<path fill="none" stroke="midnightblue" d="M42.29,-112.08C45.85,-104.69 51.02,-93.95 55.42,-84.81"/>
<polygon fill="midnightblue" stroke="midnightblue" points="58.6,-86.28 59.79,-75.75 52.29,-83.24 58.6,-86.28"/>
</g>
<!-- Node3&#45;&gt;Node2 -->
<g id="edge3" class="edge">
<title>Node3&#45;&gt;Node2</title>
<path fill="none" stroke="midnightblue" d="M59.71,-56.08C56.15,-48.69 50.98,-37.95 46.58,-28.81"/>
<polygon fill="midnightblue" stroke="midnightblue" points="49.71,-27.24 42.21,-19.75 43.4,-30.28 49.71,-27.24"/>
</g>
</g>
</svg>
