<?xml version="1.0" encoding="UTF-8" standalone="no"?>
<!DOCTYPE svg PUBLIC "-//W3C//DTD SVG 1.1//EN"
 "http://www.w3.org/Graphics/SVG/1.1/DTD/svg11.dtd">
<!-- Generated by graphviz version 2.43.0 (0)
 -->
<!-- Title: src/freeRTOS_API.h Pages: 1 -->
<svg width="276pt" height="140pt"
 viewBox="0.00 0.00 275.50 140.00" xmlns="http://www.w3.org/2000/svg" xmlns:xlink="http://www.w3.org/1999/xlink">
<g id="graph0" class="graph" transform="scale(1 1) rotate(0) translate(4 136)">
<title>src/freeRTOS_API.h</title>
<polygon fill="white" stroke="transparent" points="-4,4 -4,-136 271.5,-136 271.5,4 -4,4"/>
<!-- Node1 -->
<g id="node1" class="node">
<title>Node1</title>
<g id="a_node1"><a xlink:title=" ">
<polygon fill="#bfbfbf" stroke="black" points="75,-112.5 75,-131.5 184,-131.5 184,-112.5 75,-112.5"/>
<text text-anchor="middle" x="129.5" y="-119.5" font-family="Helvetica,sans-Serif" font-size="10.00">src/freeRTOS_API.h</text>
</a>
</g>
</g>
<!-- Node2 -->
<g id="node2" class="node">
<title>Node2</title>
<g id="a_node2"><a xlink:href="_task_8h.html" target="_top" xlink:title=" ">
<polygon fill="white" stroke="black" points="0,-56.5 0,-75.5 47,-75.5 47,-56.5 0,-56.5"/>
<text text-anchor="middle" x="23.5" y="-63.5" font-family="Helvetica,sans-Serif" font-size="10.00">Task.h</text>
</a>
</g>
</g>
<!-- Node1&#45;&gt;Node2 -->
<g id="edge1" class="edge">
<title>Node1&#45;&gt;Node2</title>
<path fill="none" stroke="midnightblue" d="M112.47,-112.32C95.47,-103.66 69.12,-90.24 49.51,-80.25"/>
<polygon fill="midnightblue" stroke="midnightblue" points="50.99,-77.08 40.49,-75.65 47.81,-83.31 50.99,-77.08"/>
</g>
<!-- Node4 -->
<g id="node4" class="node">
<title>Node4</title>
<g id="a_node4"><a xlink:href="_queue_8h.html" target="_top" xlink:title=" ">
<polygon fill="white" stroke="black" points="65,-56.5 65,-75.5 122,-75.5 122,-56.5 65,-56.5"/>
<text text-anchor="middle" x="93.5" y="-63.5" font-family="Helvetica,sans-Serif" font-size="10.00">Queue.h</text>
</a>
</g>
</g>
<!-- Node1&#45;&gt;Node4 -->
<g id="edge3" class="edge">
<title>Node1&#45;&gt;Node4</title>
<path fill="none" stroke="midnightblue" d="M123.56,-112.08C118.52,-104.53 111.16,-93.49 104.99,-84.23"/>
<polygon fill="midnightblue" stroke="midnightblue" points="107.79,-82.13 99.33,-75.75 101.97,-86.01 107.79,-82.13"/>
</g>
<!-- Node5 -->
<g id="node5" class="node">
<title>Node5</title>
<g id="a_node5"><a xlink:href="_timer_8h.html" target="_top" xlink:title=" ">
<polygon fill="white" stroke="black" points="140,-56.5 140,-75.5 193,-75.5 193,-56.5 140,-56.5"/>
<text text-anchor="middle" x="166.5" y="-63.5" font-family="Helvetica,sans-Serif" font-size="10.00">Timer.h</text>
</a>
</g>
</g>
<!-- Node1&#45;&gt;Node5 -->
<g id="edge5" class="edge">
<title>Node1&#45;&gt;Node5</title>
<path fill="none" stroke="midnightblue" d="M135.61,-112.08C140.78,-104.53 148.35,-93.49 154.69,-84.23"/>
<polygon fill="midnightblue" stroke="midnightblue" points="157.74,-85.98 160.5,-75.75 151.96,-82.02 157.74,-85.98"/>
</g>
<!-- Node6 -->
<g id="node6" class="node">
<title>Node6</title>
<g id="a_node6"><a xlink:href="_mutex_8h.html" target="_top" xlink:title=" ">
<polygon fill="white" stroke="black" points="211.5,-56.5 211.5,-75.5 267.5,-75.5 267.5,-56.5 211.5,-56.5"/>
<text text-anchor="middle" x="239.5" y="-63.5" font-family="Helvetica,sans-Serif" font-size="10.00">Mutex.h</text>
</a>
</g>
</g>
<!-- Node1&#45;&gt;Node6 -->
<g id="edge7" class="edge">
<title>Node1&#45;&gt;Node6</title>
<path fill="none" stroke="midnightblue" d="M147.17,-112.32C164.89,-103.62 192.4,-90.12 212.79,-80.11"/>
<polygon fill="midnightblue" stroke="midnightblue" points="214.44,-83.2 221.87,-75.65 211.35,-76.92 214.44,-83.2"/>
</g>
<!-- Node3 -->
<g id="node3" class="node">
<title>Node3</title>
<g id="a_node3"><a xlink:title=" ">
<polygon fill="white" stroke="#bfbfbf" points="98,-0.5 98,-19.5 161,-19.5 161,-0.5 98,-0.5"/>
<text text-anchor="middle" x="129.5" y="-7.5" font-family="Helvetica,sans-Serif" font-size="10.00">Arduino.h</text>
</a>
</g>
</g>
<!-- Node2&#45;&gt;Node3 -->
<g id="edge2" class="edge">
<title>Node2&#45;&gt;Node3</title>
<path fill="none" stroke="midnightblue" d="M40.53,-56.32C57.53,-47.66 83.88,-34.24 103.49,-24.25"/>
<polygon fill="midnightblue" stroke="midnightblue" points="105.19,-27.31 112.51,-19.65 102.01,-21.08 105.19,-27.31"/>
</g>
<!-- Node4&#45;&gt;Node3 -->
<g id="edge4" class="edge">
<title>Node4&#45;&gt;Node3</title>
<path fill="none" stroke="midnightblue" d="M99.44,-56.08C104.48,-48.53 111.84,-37.49 118.01,-28.23"/>
<polygon fill="midnightblue" stroke="midnightblue" points="121.03,-30.01 123.67,-19.75 115.21,-26.13 121.03,-30.01"/>
</g>
<!-- Node5&#45;&gt;Node3 -->
<g id="edge6" class="edge">
<title>Node5&#45;&gt;Node3</title>
<path fill="none" stroke="midnightblue" d="M160.39,-56.08C155.22,-48.53 147.65,-37.49 141.31,-28.23"/>
<polygon fill="midnightblue" stroke="midnightblue" points="144.04,-26.02 135.5,-19.75 138.26,-29.98 144.04,-26.02"/>
</g>
<!-- Node6&#45;&gt;Node3 -->
<g id="edge8" class="edge">
<title>Node6&#45;&gt;Node3</title>
<path fill="none" stroke="midnightblue" d="M221.83,-56.32C204.11,-47.62 176.6,-34.12 156.21,-24.11"/>
<polygon fill="midnightblue" stroke="midnightblue" points="157.65,-20.92 147.13,-19.65 154.56,-27.2 157.65,-20.92"/>
</g>
</g>
</svg>
